<?xml version="1.0" encoding="UTF-8"?>
<svg version="1.1" xmlns="http://www.w3.org/2000/svg" width="1254" height="1254">
<path d="M0 0 C413.82 0 827.64 0 1254 0 C1254 413.82 1254 827.64 1254 1254 C840.18 1254 426.36 1254 0 1254 C0 840.18 0 426.36 0 0 Z " fill="#FCFCFC" transform="translate(0,0)"/>
<path d="M0 0 C1.56192078 -0.01045349 1.56192078 -0.01045349 3.15539551 -0.02111816 C6.50077396 -0.03842464 9.84598488 -0.04483863 13.19140625 -0.046875 C14.33296173 -0.04788208 15.47451721 -0.04888916 16.65066528 -0.04992676 C33.89323972 -0.03962861 50.70112909 0.46678444 67.75390625 3.203125 C69.03177002 3.3880249 69.03177002 3.3880249 70.33544922 3.57666016 C103.50823733 8.46135811 138.00107301 23.12683943 164.75390625 43.203125 C165.39440918 43.67443848 166.03491211 44.14575195 166.69482422 44.63134766 C183.80549255 57.35288933 200.8122399 73.49651627 212.75390625 91.203125 C213.19202637 91.84523926 213.63014648 92.48735352 214.08154297 93.14892578 C219.21928957 100.71671156 224.06678237 108.45276569 228.50390625 116.453125 C228.85146973 117.06075684 229.1990332 117.66838867 229.55712891 118.29443359 C231.08833339 121.15048726 231.78860038 122.86166171 231.45703125 126.125 C231.225 126.81078125 230.99296875 127.4965625 230.75390625 128.203125 C226.88050018 128.02641852 225.74850764 127.19770377 222.95703125 124.39453125 C221.9611043 123.19438897 220.97730388 121.98411137 220.00390625 120.765625 C218.93179964 119.47198449 217.85887887 118.17901829 216.78515625 116.88671875 C216.264375 116.25233887 215.74359375 115.61795898 215.20703125 114.96435547 C184.39645845 77.62103017 140.46448892 47.84645254 92.81835938 37.13891602 C88.93602337 36.26109908 85.09524421 35.24816742 81.24609375 34.234375 C73.29967414 32.2140094 65.33837303 30.89418818 57.19140625 29.953125 C56.48090118 29.86940643 55.77039612 29.78568787 55.0383606 29.69943237 C28.39846729 26.64405402 1.22508348 26.86321526 -25.24609375 31.203125 C-26.73713623 31.43588135 -26.73713623 31.43588135 -28.25830078 31.67333984 C-40.42519285 33.58152867 -52.36816033 35.94176935 -64.24609375 39.203125 C-65.51453125 39.54472656 -66.78296875 39.88632812 -68.08984375 40.23828125 C-74.03388417 41.88038485 -79.59133266 43.73559289 -85.24609375 46.203125 C-87.18722507 46.79386573 -89.13322082 47.36870146 -91.08203125 47.93359375 C-98.37113554 50.15779972 -105.33112181 52.96666393 -112.30859375 56.015625 C-112.94761627 56.29324677 -113.58663879 56.57086853 -114.24502563 56.85690308 C-140.60245996 68.35909019 -165.62696623 82.57006219 -188.56884766 99.93896484 C-190.16340154 101.14079891 -191.7727515 102.32292751 -193.3828125 103.50390625 C-200.96207469 109.08184692 -208.13032608 115.05427563 -215.24609375 121.203125 C-215.97570312 121.83089844 -216.7053125 122.45867187 -217.45703125 123.10546875 C-219.39983933 124.79055739 -221.32634488 126.49180601 -223.24609375 128.203125 C-224.20128906 129.05390625 -225.15648437 129.9046875 -226.140625 130.78125 C-227.15539852 131.69220663 -228.16972331 132.60366338 -229.18359375 133.515625 C-230.12074219 134.35738281 -231.05789063 135.19914063 -232.0234375 136.06640625 C-234.28495571 138.00179531 -234.28495571 138.00179531 -235.24609375 140.203125 C-234.16070313 140.31269531 -233.0753125 140.42226563 -231.95703125 140.53515625 C-226.49012145 141.22302171 -221.20732695 142.54226331 -215.87109375 143.890625 C-214.81905762 144.15536621 -213.76702148 144.42010742 -212.68310547 144.69287109 C-183.95069886 152.07323286 -156.17316618 164.2768232 -130.80859375 179.640625 C-130.14706299 180.02887451 -129.48553223 180.41712402 -128.80395508 180.81713867 C-125.90259821 182.63789815 -124.41908698 183.67375087 -123.3359375 186.98828125 C-123.29146484 188.08462891 -123.29146484 188.08462891 -123.24609375 189.203125 C-128.24475472 190.93533425 -132.01140627 189.09228799 -136.68359375 187.265625 C-145.5552323 183.97528017 -154.54197694 181.35846927 -163.68359375 178.953125 C-164.92616943 178.62449463 -166.16874512 178.29586426 -167.44897461 177.95727539 C-178.50466053 175.07212767 -189.54894548 172.25200362 -200.87109375 170.640625 C-201.72823975 170.51840576 -202.58538574 170.39618652 -203.46850586 170.27026367 C-205.2272997 170.02408749 -206.98666015 169.7819232 -208.74658203 169.54394531 C-210.31126294 169.33059363 -211.87496511 169.10978238 -213.43701172 168.87792969 C-240.87311909 164.83282142 -269.02238166 166.58689421 -296.24609375 171.203125 C-297.10332031 171.34733887 -297.96054687 171.49155273 -298.84375 171.64013672 C-309.31768506 173.4928375 -319.49288972 176.64097748 -329.68359375 179.640625 C-330.32507355 179.82781097 -330.96655334 180.01499695 -331.62747192 180.20785522 C-338.89845917 182.34282623 -345.79100471 184.74331205 -352.62988281 188.0090332 C-355.25412618 189.20679116 -357.88452053 190.1810431 -360.609375 191.125 C-367.11508799 193.42860176 -373.24227669 196.41885596 -379.43359375 199.453125 C-380.64020537 200.0399931 -381.84699451 200.62649637 -383.05395508 201.21264648 C-389.19538293 204.19996905 -395.3251424 207.21139932 -401.43359375 210.265625 C-402.03510254 210.56637939 -402.63661133 210.86713379 -403.25634766 211.17700195 C-407.09713511 213.10540775 -410.91983685 215.06678461 -414.73828125 217.0390625 C-428.28507475 223.98882963 -441.93154901 230.01588986 -456.24609375 235.203125 C-457.05272461 235.49944824 -457.85935547 235.79577148 -458.69042969 236.10107422 C-475.53420791 242.23475195 -492.90115959 246.28138432 -510.87890625 246.44140625 C-512.23840393 246.45609703 -512.23840393 246.45609703 -513.62536621 246.47108459 C-551.31527833 246.79494827 -551.31527833 246.79494827 -567.24609375 242.203125 C-568.03467773 241.98350098 -568.82326172 241.76387695 -569.63574219 241.53759766 C-584.52148732 237.28495757 -599.12966589 231.31955286 -610.24609375 220.203125 C-610.24609375 218.883125 -610.24609375 217.563125 -610.24609375 216.203125 C-604.9622499 215.17345506 -600.79903035 215.45012641 -595.53515625 216.61328125 C-585.88161214 218.51440245 -576.43400976 218.7143422 -566.62109375 218.640625 C-565.74424927 218.63725128 -564.86740479 218.63387756 -563.96398926 218.63040161 C-550.00453973 218.55283501 -536.8469356 217.48978159 -523.24609375 214.203125 C-520.94546955 213.68810005 -518.64467827 213.17382106 -516.34375 212.66015625 C-502.9504755 209.57661146 -490.23553094 205.77747666 -477.65136719 200.25341797 C-475.16542107 199.16789826 -472.66563158 198.12161796 -470.16015625 197.08203125 C-452.85160948 189.85701562 -435.83095312 181.91814091 -419.40234375 172.859375 C-414.59835992 170.33847259 -409.6209927 168.32546858 -404.55859375 166.390625 C-400.75813029 164.89104454 -397.17638797 163.16204939 -393.55859375 161.265625 C-387.78435785 158.31136477 -381.96140356 156.30404157 -375.7890625 154.37890625 C-372.22680363 153.25670096 -372.22680363 153.25670096 -368.83203125 151.7109375 C-364.83766907 150.03139087 -360.86390934 148.8736659 -356.68359375 147.765625 C-355.07007946 147.33159456 -353.45679979 146.89669105 -351.84375 146.4609375 C-351.05629395 146.24856445 -350.26883789 146.03619141 -349.45751953 145.81738281 C-346.49059745 144.99327418 -343.56072229 144.05677917 -340.62109375 143.140625 C-330.38961946 140.19338533 -319.77312412 138.69838921 -309.24609375 137.203125 C-308.4886084 137.08912354 -307.73112305 136.97512207 -306.95068359 136.85766602 C-302.20308766 136.25382763 -297.56196791 136.19638701 -292.78735352 136.31871033 C-289.4970249 136.4009477 -286.20666603 136.43549749 -282.91552734 136.46948242 C-281.22223514 136.50018979 -279.52920183 136.55415831 -277.83740234 136.6315918 C-268.1462922 137.24285329 -268.1462922 137.24285329 -259.34417725 133.87432861 C-255.88768947 130.63785502 -253.19451172 126.95192011 -250.55667114 123.03894043 C-248.34392187 119.93939112 -245.7344403 117.2150378 -243.12109375 114.453125 C-242.12367024 113.38283829 -241.1262708 112.31252915 -240.12890625 111.2421875 C-234.10421185 104.86286226 -227.95850853 98.66776831 -221.28515625 92.96484375 C-219.01917145 91.00706761 -216.82465881 88.98083552 -214.62109375 86.953125 C-208.41990506 81.36732144 -201.87928784 76.26075945 -195.24609375 71.203125 C-194.36244141 70.52612549 -194.36244141 70.52612549 -193.4609375 69.83544922 C-139.15027848 28.43103197 -68.83262281 0.31158918 0 0 Z " fill="#FD5436" transform="translate(764.24609375,570.796875)"/>
<path d="M0 0 C3.23622237 -0.00434976 6.47105067 -0.04072239 9.70703125 -0.07861328 C27.18458098 -0.17336147 44.23405572 1.42740298 60.76953125 7.37060547 C61.72601562 7.69802734 62.6825 8.02544922 63.66796875 8.36279297 C83.08100621 15.28289781 98.36971162 24.70369612 112.76953125 39.37060547 C113.50042969 40.11439453 114.23132812 40.85818359 114.984375 41.62451172 C125.14731492 52.66316982 136.02587786 68.8067042 135.76953125 84.37060547 C134.11953125 84.70060547 132.46953125 85.03060547 130.76953125 85.37060547 C130.14046875 84.40380859 129.51140625 83.43701172 128.86328125 82.44091797 C108.5212537 51.39824044 84.60572157 33.88300918 48.32177734 25.82714844 C18.77874238 19.73461594 -11.92788222 23.99767136 -41.23046875 29.37060547 C-42.10396973 29.52400391 -42.9774707 29.67740234 -43.87744141 29.83544922 C-48.52157811 30.69288281 -52.7563316 31.8348705 -57.13867188 33.58496094 C-61.32526238 35.15737553 -65.67563027 36.23333767 -69.98046875 37.43310547 C-79.43572591 40.12973651 -88.72363018 43.1824297 -97.98046875 46.49560547 C-99.1209668 46.90302979 -100.26146484 47.3104541 -101.43652344 47.73022461 C-107.67081122 49.98949333 -113.8171833 52.39762285 -119.92529297 54.97753906 C-144.38204664 65.28557839 -169.0117698 75.07303119 -194.23046875 83.37060547 C-196.04998047 83.97001953 -196.04998047 83.97001953 -197.90625 84.58154297 C-217.79400357 90.94733305 -237.50379897 94.75771488 -258.23046875 97.37060547 C-258.97748047 97.47663086 -259.72449219 97.58265625 -260.49414062 97.69189453 C-281.27544742 100.43975453 -303.69951754 99.06100131 -324.23046875 95.37060547 C-324.92346069 95.24711731 -325.61645264 95.12362915 -326.33044434 94.99639893 C-356.92234152 89.5365461 -356.92234152 89.5365461 -367.58203125 86.78076172 C-391.68957899 80.55079097 -417.05869244 79.2034663 -441.85546875 79.18310547 C-442.56268066 79.18201782 -443.26989258 79.18093018 -443.99853516 79.17980957 C-458.33318094 79.18231504 -472.41990188 79.90548753 -486.54296875 82.49560547 C-487.74373047 82.71514893 -488.94449219 82.93469238 -490.18164062 83.16088867 C-513.77026823 87.63091505 -536.4934772 94.86339168 -558.76708984 103.78759766 C-559.91387207 104.24553711 -561.0606543 104.70347656 -562.2421875 105.17529297 C-563.78652466 105.80540283 -563.78652466 105.80540283 -565.36206055 106.44824219 C-568.18135001 107.35481088 -570.29448324 107.56011091 -573.23046875 107.37060547 C-572.68871154 102.82289705 -572.68871154 102.82289705 -570.7265625 100.88623047 C-568.23981624 99.35737698 -565.75109635 97.84348215 -563.23046875 96.37060547 C-562.12574219 95.70029297 -561.02101563 95.02998047 -559.8828125 94.33935547 C-498.59644872 57.93072771 -425.64367374 53.91119207 -356.41796875 60.87060547 C-321.85226054 64.33623422 -285.63083528 66.64296282 -251.23046875 60.37060547 C-250.34117676 60.21011719 -249.45188477 60.04962891 -248.53564453 59.88427734 C-240.18171544 58.32963263 -231.91435815 56.44600785 -223.75 54.08154297 C-221.76064676 53.52020609 -219.7572886 53.00851068 -217.75 52.51513672 C-195.48554503 46.98064496 -173.66984461 39.68786826 -151.89599609 32.51245117 C-150.93344406 32.19539719 -149.97089203 31.8783432 -148.97917175 31.55168152 C-147.18057637 30.95850885 -145.38244946 30.36391277 -143.58491516 29.76753235 C-138.58593823 28.11581777 -133.56934813 26.5498785 -128.51947021 25.06071472 C-124.06418083 23.71749303 -119.66648227 22.19871718 -115.26123047 20.70117188 C-90.64411485 12.39637891 -65.35969999 6.61546503 -39.66943359 2.87402344 C-37.40573542 2.54264862 -35.14529197 2.18807756 -32.88916016 1.80859375 C-21.94177029 0.09581998 -11.06145826 -0.00165591 0 0 Z " fill="#049BA6" transform="translate(965.23046875,718.62939453125)"/>
<path d="M0 0 C0.74330566 0.19835449 1.48661133 0.39670898 2.25244141 0.60107422 C20.50962993 5.61292964 37.70817536 14.58128475 52 27 C52.54060059 27.46519043 53.08120117 27.93038086 53.63818359 28.40966797 C65.94781914 39.07944474 75.58101606 51.06117639 84 65 C84.37511719 65.60577881 84.75023437 66.21155762 85.13671875 66.83569336 C87.73391139 71.14962574 88.41203545 73.95256571 88 79 C85.9375 79.4375 85.9375 79.4375 83 79 C79.73692236 76.46549551 77.08725635 73.3069041 74.453125 70.140625 C61.75495345 54.92796403 44.63107258 44.26616043 26.88500977 35.90893555 C25.59567664 35.28723017 24.31770522 34.64154958 23.05053711 33.97583008 C18.29393411 31.48216212 13.62647947 29.80092357 8.4375 28.4375 C7.64577393 28.22843018 6.85404785 28.01936035 6.03833008 27.80395508 C4.43391347 27.3864423 2.82804469 26.97446611 1.22070312 26.56835938 C-0.68862324 26.07969273 -2.58774142 25.55144525 -4.484375 25.015625 C-25.27136688 19.84327491 -47.63542656 22.23557319 -68 28 C-68.8573877 28.2379126 -69.71477539 28.4758252 -70.59814453 28.72094727 C-105.16178943 38.64350908 -131.35883208 64.30315538 -148.84008789 94.83300781 C-152.63298312 101.91903983 -155.35547182 109.42852927 -158 117 C-158.27972656 117.78632812 -158.55945313 118.57265625 -158.84765625 119.3828125 C-160.42234271 123.92487294 -161.62258184 128.43863071 -162.5703125 133.15234375 C-163 135 -163 135 -164 137 C-164.36485937 139.14069835 -164.6932293 141.28770849 -165 143.4375 C-165.47820016 146.78116516 -165.93145288 149.79435864 -167 153 C-167.13868432 155.040411 -167.22508907 157.08455884 -167.28125 159.12890625 C-167.33732422 160.92811523 -167.33732422 160.92811523 -167.39453125 162.76367188 C-167.46495212 165.3001272 -167.53526428 167.83658555 -167.60546875 170.37304688 C-167.64285156 171.57123047 -167.68023437 172.76941406 -167.71875 174.00390625 C-167.74904297 175.10549072 -167.77933594 176.2070752 -167.81054688 177.34204102 C-168 180 -168 180 -169 182 C-170.32 182 -171.64 182 -173 182 C-176.25594601 175.88324705 -177.66791578 170.17346387 -178.5078125 163.30859375 C-178.93064185 159.93611002 -178.93064185 159.93611002 -180.03125 156.51953125 C-181.65337082 150.22387178 -181.39153925 143.70862524 -181.375 137.25 C-181.37545319 136.56591064 -181.37590637 135.88182129 -181.37637329 135.17700195 C-181.348417 120.78771152 -179.86108165 107.23521427 -174 94 C-173.57441472 92.52911754 -173.17551926 91.05006011 -172.8125 89.5625 C-162.79775483 55.49171748 -133.98177227 27.94318758 -104 11 C-103.26265625 10.57976563 -102.5253125 10.15953125 -101.765625 9.7265625 C-96.6032177 6.96886629 -91.07207969 5.12465812 -85.546875 3.23046875 C-83.41453752 2.49072612 -81.29403959 1.71308034 -79.203125 0.86328125 C-55.93327892 -8.18236701 -23.66290112 -6.54505776 0 0 Z " fill="#FDA609" transform="translate(487,534)"/>
<path d="M0 0 C2.203125 2.296875 2.203125 2.296875 2.203125 6.296875 C-27.49044575 16.77232569 -27.49044575 16.77232569 -40.796875 20.296875 C-41.62574219 20.52391113 -42.45460938 20.75094727 -43.30859375 20.98486328 C-59.13689259 25.25677094 -77.89162611 29.65188047 -93.296875 21.83984375 C-106.84226323 13.47979945 -115.20067214 1.36283142 -123.796875 -11.703125 C-124.46847656 -12.71890625 -125.14007812 -13.7346875 -125.83203125 -14.78125 C-130.34547255 -21.90885943 -130.34547255 -21.90885943 -129.796875 -26.703125 C-101.01933813 -55.48066187 -24.41332678 -19.65585798 0 0 Z " fill="#FCA80B" transform="translate(1065.796875,801.703125)"/>
<path d="M0 0 C3.07439235 2.02630405 4.71627239 3.74345905 6.75 6.8125 C7.23583984 9.90380859 7.23583984 9.90380859 7.2109375 13.4609375 C7.21088211 14.12618439 7.21082672 14.79143127 7.21076965 15.47683716 C7.20354994 17.7144374 7.16529489 19.95026645 7.125 22.1875 C7.10907156 23.78059201 7.09387475 25.37369148 7.0793457 26.96679688 C7.01390913 32.58314765 6.88525133 38.19745475 6.75 43.8125 C6.72359436 44.94804321 6.69718872 46.08358643 6.66998291 47.25354004 C6.49352203 54.69663727 6.28866587 62.13839505 6.05426025 69.57989502 C5.97651028 72.06541497 5.90256733 74.55105698 5.8324585 77.0368042 C5.72993387 80.55646334 5.60804964 84.07492064 5.48046875 87.59375 C5.43802788 89.18366257 5.43802788 89.18366257 5.39472961 90.80569458 C5.02338557 99.97691959 5.02338557 99.97691959 1.75 103.8125 C-1.50462591 105.98225061 -2.81099258 106.18710798 -6.625 106.3125 C-7.56085938 106.3640625 -8.49671875 106.415625 -9.4609375 106.46875 C-12.78818485 105.68586827 -14.08704146 104.25367798 -16.17703247 101.61297607 C-18.00152146 98.55142138 -18.06864326 95.36418388 -18.140625 91.8984375 C-18.17529877 91.1395372 -18.20997253 90.3806369 -18.24569702 89.59873962 C-18.35304796 87.12864826 -18.42695069 84.65882306 -18.5 82.1875 C-18.56750059 80.46500843 -18.63701831 78.74259479 -18.70849609 77.02026367 C-18.84794289 73.56479152 -18.97376816 70.10926411 -19.08691406 66.65283203 C-19.2251331 62.44272973 -19.39816652 58.23552463 -19.5859375 54.02734375 C-19.87775634 47.29029725 -20.08408895 40.55372809 -20.25 33.8125 C-20.28399902 32.58208984 -20.31799805 31.35167969 -20.35302734 30.08398438 C-20.44715222 26.34765695 -20.50985391 22.61212025 -20.5625 18.875 C-20.59230957 17.73651611 -20.62211914 16.59803223 -20.65283203 15.42504883 C-20.70905311 7.57981539 -20.70905311 7.57981539 -18.37109375 3.671875 C-12.52678544 -1.4513124 -7.35031652 -2.68569258 0 0 Z " fill="#FDA607" transform="translate(461.25,372.1875)"/>
<path d="M0 0 C1.37118988 0.4924395 1.37118988 0.4924395 2.77008057 0.99482727 C5.73222387 2.06137866 8.68840467 3.14345835 11.64453125 4.2265625 C13.67878347 4.96422027 15.71337188 5.70095157 17.74829102 6.43676758 C20.79357387 7.53841593 23.83841768 8.64116904 26.88157654 9.74867249 C32.71816199 11.871484 38.56707771 13.94896507 44.44140625 15.96484375 C45.73680465 16.41272186 47.03213649 16.86079252 48.32739258 17.30908203 C50.63397497 18.10441172 52.94354676 18.89114657 55.2565918 19.66748047 C60.90795262 21.63766317 65.37367293 23.3832411 69.45703125 27.8515625 C70.51642609 31.27965555 70.21514906 34.36199081 69.45703125 37.8515625 C67.5414577 41.46503079 65.40294053 43.53625941 61.45703125 44.8515625 C56.47865301 45.11142393 52.39327422 44.50835267 47.6171875 43.12890625 C46.98189621 42.94814545 46.34660492 42.76738464 45.69206238 42.58114624 C43.63190371 41.99259205 41.57579839 41.39105745 39.51953125 40.7890625 C38.08127439 40.37513105 36.64279509 39.96197172 35.20410156 39.54956055 C31.61537174 38.51841787 28.02986962 37.47653916 24.44537354 36.43078613 C21.53806119 35.5838575 18.62832365 34.74537192 15.71875 33.90625 C11.80284688 32.77496141 7.89208783 31.62798872 3.984375 30.46875 C0.23894743 29.36041594 -3.51691457 28.31040291 -7.2890625 27.296875 C-8.66529785 26.91535278 -8.66529785 26.91535278 -10.06933594 26.52612305 C-11.78021355 26.05225704 -13.49554339 25.59403611 -15.21582031 25.15551758 C-20.79687465 23.57957238 -23.29997459 21.69401397 -26.54296875 16.8515625 C-27.74940441 13.23225552 -27.86565434 10.65925245 -27.54296875 6.8515625 C-25.39711738 3.003829 -23.04974249 -1.16363353 -18.79296875 -2.8359375 C-11.75516547 -3.81341018 -6.51229205 -2.41164205 0 0 Z " fill="#FDA308" transform="translate(209.54296875,564.1484375)"/>
<path d="M0 0 C6.06164527 3.22820129 8.94150483 7.8149593 12.578125 13.5234375 C13.49534332 14.93008163 13.49534332 14.93008163 14.43109131 16.36514282 C16.38197562 19.36130127 18.31659697 22.36753779 20.25 25.375 C22.79207149 29.3026063 25.34062385 33.22597613 27.890625 37.1484375 C28.50401733 38.09450867 29.11740967 39.04057983 29.74938965 40.01531982 C34.00789852 46.55745373 38.42381499 52.94915157 43.03808594 59.24462891 C48.63776831 67.10899118 48.63776831 67.10899118 48.42578125 73 C47.6483437 76.65181676 45.67388228 78.45048434 43 81 C39.35593938 82.21468687 35.75412801 82.92134277 32 82 C27.75539379 78.32180746 24.32313956 73.8662793 20.8125 69.5 C20.24080078 68.79294922 19.66910156 68.08589844 19.08007812 67.35742188 C14.83131579 62.08325991 10.69982837 56.729645 6.59375 51.34375 C3.63788515 47.5011257 0.56877818 43.75261109 -2.5 40 C-20.30262586 18.21617407 -20.30262586 18.21617407 -19.875 12.75 C-19.23036798 7.67454281 -17.72939622 5.4807698 -14 2 C-9.35579042 -1.19934438 -5.29780579 -1.78216628 0 0 Z " fill="#FDA709" transform="translate(304,430)"/>
<path d="M0 0 C3.59213697 1.93592628 5.74290773 4.6143616 8 8 C8.79088926 12.21300623 8.84650967 16.3419619 6.87158203 20.21020508 C3.25595545 25.36327339 -0.55494521 30.26146612 -4.625 35.0625 C-9.23665436 40.58149491 -13.71671008 46.15965224 -18 51.9375 C-22.46778273 57.95843765 -26.98141333 63.93960294 -31.5625 69.875 C-32.15869141 70.65480225 -32.75488281 71.43460449 -33.36914062 72.23803711 C-33.92923828 72.96128174 -34.48933594 73.68452637 -35.06640625 74.4296875 C-35.56084229 75.07147949 -36.05527832 75.71327148 -36.56469727 76.37451172 C-38.47682946 78.540012 -40.21114491 79.85966061 -43.0859375 80.37109375 C-47.5852541 80.50162 -49.37507224 80.5077538 -53 77.5625 C-53.66 76.716875 -54.32 75.87125 -55 75 C-55.33 74.67 -55.66 74.34 -56 74 C-57.23079243 64.15366055 -49.88347617 56.10973803 -44.6328125 48.3203125 C-44.03499969 47.42690155 -43.43718689 46.5334906 -42.82125854 45.61300659 C-40.92581167 42.78143892 -39.02568173 39.95305583 -37.125 37.125 C-34.6258502 33.39961093 -32.12887452 29.67277096 -29.6328125 25.9453125 C-29.03975815 25.06081924 -28.4467038 24.17632599 -27.8356781 23.26502991 C-24.23747263 17.88776249 -20.7075568 12.48125091 -17.30932617 6.97485352 C-12.95610339 0.40889807 -7.76053135 -1.59997968 0 0 Z " fill="#FDA809" transform="translate(613,446)"/>
<path d="M0 0 C1.09248047 0.00604248 2.18496094 0.01208496 3.31054688 0.01831055 C14.89124337 0.15972669 25.86090703 1.08279304 36.75 5.25 C38.29880859 5.75660156 38.29880859 5.75660156 39.87890625 6.2734375 C46.56188248 8.49860724 52.77718529 11.09044392 59 14.375 C59.64404785 14.71168701 60.2880957 15.04837402 60.95166016 15.39526367 C64.10064675 17.10961775 65.72364052 18.21046077 67.75 21.25 C49.83268288 26.55465452 30.6213299 29.49949055 11.9375 29.75 C10.84731567 29.77755371 10.84731567 29.77755371 9.73510742 29.80566406 C1.88403199 29.71293848 -4.84551299 25.78347238 -10.25 20.25 C-15.24255549 14.61042331 -19.81528182 8.97010078 -23.25 2.25 C-15.43312234 0.55370277 -7.98960737 -0.07111493 0 0 Z " fill="#FDFBF6" transform="translate(982.25,782.75)"/>
<path d="M0 0 C0 0.66 0 1.32 0 2 C-0.56847656 2.18175781 -1.13695312 2.36351562 -1.72265625 2.55078125 C-5.89009349 3.90745948 -9.96338806 5.3303361 -13.97265625 7.11328125 C-17.72630059 8.75504862 -21.53403613 10.27084467 -25.328125 11.81640625 C-28.14418065 12.9732216 -28.14418065 12.9732216 -31 15 C-31 16.98 -31 18.96 -31 21 C-26.38 19.35 -21.76 17.7 -17 16 C-16.505 16.99 -16.505 16.99 -16 18 C-16.68924561 18.24645264 -17.37849121 18.49290527 -18.08862305 18.74682617 C-21.2888164 19.89213883 -24.48822036 21.03963752 -27.6875 22.1875 C-28.83186523 22.59734131 -29.97623047 23.00718262 -31.15527344 23.42944336 C-38.0121613 25.89427716 -44.8158038 28.43057784 -51.546875 31.22265625 C-54.16399386 32.05196621 -56.27182547 32.15211045 -59 32 C-58.45824279 27.45229158 -58.45824279 27.45229158 -56.49609375 25.515625 C-54.00934749 23.98677151 -51.5206276 22.47287668 -49 21 C-47.89527344 20.3296875 -46.79054688 19.659375 -45.65234375 18.96875 C-13.70430604 0 -13.70430604 0 0 0 Z " fill="#0A2E54" transform="translate(451,794)"/>
<path d="M0 0 C0 0.66 0 1.32 0 2 C-0.73605469 2.06058594 -1.47210938 2.12117187 -2.23046875 2.18359375 C-3.69419922 2.30927734 -3.69419922 2.30927734 -5.1875 2.4375 C-6.15042969 2.51871094 -7.11335938 2.59992187 -8.10546875 2.68359375 C-10.80602619 2.97879639 -13.37512966 3.29599392 -16 4 C-16.33 4.66 -16.66 5.32 -17 6 C-19.625 6.30859375 -19.625 6.30859375 -23 6.4375 C-28.84992605 6.80152378 -33.57789482 7.88308232 -39 10 C-43.97972419 11.76243995 -48.73378163 13.3248438 -54 14 C-54 13.01 -54 12.02 -54 11 C-42.08514896 7.51086091 -30.1728699 4.04033022 -18 1.5625 C-17.21979492 1.39911133 -16.43958984 1.23572266 -15.63574219 1.06738281 C-10.35151099 0.04249305 -5.38154706 -0.13347091 0 0 Z " fill="#124A6B" transform="translate(506,781)"/>
<path d="M0 0 C1.72786328 0.00502757 3.45572798 0.00958824 5.18359375 0.01367188 C9.37243168 0.02457203 13.56119967 0.04176652 17.75 0.0625 C18.245 1.5475 18.245 1.5475 18.75 3.0625 C20.73 3.0625 22.71 3.0625 24.75 3.0625 C24.75 3.3925 24.75 3.7225 24.75 4.0625 C20.95274956 4.12911843 17.45877526 4.17555896 13.70117188 3.57617188 C9.14868943 2.98432665 4.68273034 2.83512405 0.09765625 2.74609375 C-0.80247696 2.72531265 -1.70261017 2.70453156 -2.63002014 2.68312073 C-5.48244187 2.61816163 -8.33494925 2.55899172 -11.1875 2.5 C-13.13086794 2.45676367 -15.07422748 2.41314781 -17.01757812 2.36914062 C-21.76163279 2.26253585 -26.50577291 2.16112005 -31.25 2.0625 C-31.25 1.7325 -31.25 1.4025 -31.25 1.0625 C-20.82852858 -0.09587658 -10.46725935 -0.0533941 0 0 Z " fill="#FD632B" transform="translate(524.25,734.9375)"/>
<path d="M0 0 C0.103125 0.639375 0.20625 1.27875 0.3125 1.9375 C0.6528125 2.9584375 0.6528125 2.9584375 1 4 C1.99 4.33 2.98 4.66 4 5 C4 5.66 4 6.32 4 7 C2.274773 7.67679658 0.54461061 8.34102 -1.1875 9 C-2.15042969 9.37125 -3.11335938 9.7425 -4.10546875 10.125 C-6.92182358 10.97636772 -9.08164439 11.17072647 -12 11 C-11.68997854 7.80732289 -11.42853465 6.38660367 -9.00390625 4.19921875 C-8.19824219 3.70035156 -7.39257812 3.20148437 -6.5625 2.6875 C-5.75941406 2.17574219 -4.95632813 1.66398438 -4.12890625 1.13671875 C-2 0 -2 0 0 0 Z " fill="#0C294E" transform="translate(404,815)"/>
<path d="M0 0 C0 0.66 0 1.32 0 2 C-0.56847656 2.18175781 -1.13695312 2.36351562 -1.72265625 2.55078125 C-5.89254348 3.90825706 -9.96599695 5.3363839 -13.98046875 7.11328125 C-16.68062629 8.29884365 -19.40260149 9.4289983 -22.125 10.5625 C-23.11757813 10.97628906 -24.11015625 11.39007812 -25.1328125 11.81640625 C-26.07898438 12.20699219 -27.02515625 12.59757813 -28 13 C-28.86367188 13.40089844 -29.72734375 13.80179688 -30.6171875 14.21484375 C-33.30370985 15.10007488 -34.35846932 14.78354029 -37 14 C-33.1911378 12.22126722 -29.37728872 10.45348217 -25.5625 8.6875 C-23.95858398 7.93823242 -23.95858398 7.93823242 -22.32226562 7.17382812 C-6.78688949 0 -6.78688949 0 0 0 Z " fill="#1E4065" transform="translate(451,794)"/>
<path d="M0 0 C4.47911082 -0.05856225 8.9581217 -0.09378482 13.4375 -0.125 C14.69755859 -0.14175781 15.95761719 -0.15851562 17.25585938 -0.17578125 C24.17984933 -0.21193786 30.31774582 0.15310929 37 2 C37 2.66 37 3.32 37 4 C24.46 3.34 11.92 2.68 -1 2 C-0.67 1.34 -0.34 0.68 0 0 Z " fill="#0AABA5" transform="translate(973,739)"/>
<path d="M0 0 C0.99 0.33 1.98 0.66 3 1 C2.52167725 1.47308594 2.04335449 1.94617188 1.55053711 2.43359375 C-0.6565534 4.61964406 -2.85953633 6.80979129 -5.0625 9 C-5.81466797 9.74378906 -6.56683594 10.48757813 -7.34179688 11.25390625 C-11.63069537 15.52423808 -15.68490158 19.85638247 -19.48999023 24.56640625 C-21 26 -21 26 -24 26 C-19.49118833 19.50444419 -14.26415596 14.02223566 -8.625 8.5 C-7.79355469 7.67757812 -6.96210937 6.85515625 -6.10546875 6.0078125 C-4.07484018 4.00052449 -2.03966833 1.99809466 0 0 Z " fill="#FD6F40" transform="translate(537,669)"/>
<path d="M0 0 C2.49505962 2.49505962 2.35948376 3.67328888 2.625 7.125 C2.69976563 8.03507813 2.77453125 8.94515625 2.8515625 9.8828125 C2.90054687 10.58148437 2.94953125 11.28015625 3 12 C1.35 12.33 -0.3 12.66 -2 13 C-4.475 9.04 -4.475 9.04 -7 5 C-6.34 4.67 -5.68 4.34 -5 4 C-4.34 4.33 -3.68 4.66 -3 5 C-3 4.34 -3 3.68 -3 3 C-1.5 1.375 -1.5 1.375 0 0 Z " fill="#14B2A8" transform="translate(1098,791)"/>
<path d="M0 0 C1.9375 0.6875 1.9375 0.6875 2.9375 2.6875 C-13.5625 2.6875 -30.0625 2.6875 -47.0625 2.6875 C-47.0625 2.3575 -47.0625 2.0275 -47.0625 1.6875 C-38.26800547 0.39804376 -29.48764529 0.60989527 -20.625 0.6875 C-17.54297256 0.71406102 -14.46100456 0.73402342 -11.37890625 0.75 C-10.67375381 0.75829834 -9.96860138 0.76659668 -9.24208069 0.77514648 C-6.01204608 0.79152321 -2.97174536 -0.45026445 0 0 Z " fill="#2A7E8E" transform="translate(553.0625,794.3125)"/>
<path d="M0 0 C1.22125328 -0.01429802 1.22125328 -0.01429802 2.46717834 -0.02888489 C3.77977882 -0.02751778 3.77977882 -0.02751778 5.11889648 -0.02612305 C6.47047096 -0.03255074 6.47047096 -0.03255074 7.84934998 -0.03910828 C9.75323649 -0.04484967 11.65714493 -0.04535324 13.56103516 -0.04101562 C16.48239227 -0.03785003 19.40274233 -0.06133634 22.32397461 -0.08666992 C24.17228062 -0.08894228 26.02058936 -0.08964671 27.86889648 -0.08862305 C28.7459877 -0.09783279 29.62307892 -0.10704254 30.52674866 -0.11653137 C32.984375 -0.09765625 32.984375 -0.09765625 36.92749023 0.2746582 C37.58749023 1.2646582 38.24749023 2.2546582 38.92749023 3.2746582 C37.66163086 3.11094727 36.39577148 2.94723633 35.09155273 2.77856445 C26.85129271 1.95453845 18.57362281 2.16917232 10.30249023 2.2121582 C8.61368948 2.21718343 6.92488727 2.22174453 5.23608398 2.22583008 C1.13318312 2.23675422 -2.96964703 2.2539624 -7.07250977 2.2746582 C-4.03044201 0.24661303 -3.41899377 0.02201115 0 0 Z " fill="#FCD07A" transform="translate(438.072509765625,528.725341796875)"/>
<path d="M0 0 C0.33 0 0.66 0 1 0 C0.67 12.21 0.34 24.42 0 37 C-0.33 37 -0.66 37 -1 37 C-1.33 26.44 -1.66 15.88 -2 5 C-1.67 5 -1.34 5 -1 5 C-0.67 3.35 -0.34 1.7 0 0 Z " fill="#FDBA2C" transform="translate(466,434)"/>
<path d="M0 0 C-2.8240329 2.8240329 -5.1943289 2.63268931 -9.125 3.125 C-10.13735718 3.25237549 -10.13735718 3.25237549 -11.17016602 3.38232422 C-15.82387454 3.93891022 -20.32245315 4.19092028 -25 4 C-22.31481076 1.31481076 -19.47703336 1.01479419 -15.875 0.3125 C-15.20009521 0.17803467 -14.52519043 0.04356934 -13.82983398 -0.0949707 C-8.86727604 -1.00914183 -4.89435368 -1.09873246 0 0 Z " fill="#16546E" transform="translate(505,796)"/>
<path d="M0 0 C4.84455959 2.37823834 4.84455959 2.37823834 7 4 C7.9375 6.75 7.9375 6.75 8 9 C5.6875 9.625 5.6875 9.625 3 10 C2.01 9.34 1.02 8.68 0 8 C0.99 7.01 1.98 6.02 3 5 C1.68 3.68 0.36 2.36 -1 1 C-0.67 0.67 -0.34 0.34 0 0 Z " fill="#FD763B" transform="translate(633,751)"/>
<path d="M0 0 C0.99 0.33 1.98 0.66 3 1 C-0.67832017 5.52615993 -4.41086363 9.39424999 -9 13 C-9.66 12.67 -10.32 12.34 -11 12 C-7.37 8.04 -3.74 4.08 0 0 Z " fill="#FDA51C" transform="translate(349,570)"/>
<path d="M0 0 C-0.33 0.99 -0.66 1.98 -1 3 C-2.85546875 3.9140625 -2.85546875 3.9140625 -5.1875 4.625 C-5.99445313 4.87121094 -6.80140625 5.11742187 -7.6328125 5.37109375 C-10.40303604 6.10707723 -13.15715807 6.63553309 -16 7 C-16 6.01 -16 5.02 -16 4 C-13.89748139 3.32815382 -11.79292237 2.66269032 -9.6875 2 C-8.51574219 1.62875 -7.34398437 1.2575 -6.13671875 0.875 C-3 0 -3 0 0 0 Z " fill="#1F4A6E" transform="translate(468,788)"/>
<path d="M0 0 C3.24992446 -0.05819424 6.49971435 -0.09366116 9.75 -0.125 C10.67039062 -0.14175781 11.59078125 -0.15851562 12.5390625 -0.17578125 C13.42851563 -0.18222656 14.31796875 -0.18867187 15.234375 -0.1953125 C16.05131836 -0.20578613 16.86826172 -0.21625977 17.70996094 -0.22705078 C20.21887518 0.02170084 21.83395625 0.74299871 24 2 C15.61526036 2.89405005 8.17443013 3.27904619 0 1 C0 0.67 0 0.34 0 0 Z " fill="#2CB7B6" transform="translate(974,719)"/>
<path d="M0 0 C-2.57504568 2.54882915 -3.89716107 2.99284397 -7.57519531 3.2487793 C-8.99340438 3.20657644 -10.41117805 3.14742643 -11.828125 3.07421875 C-12.57713074 3.04777786 -13.32613647 3.02133698 -14.09783936 2.99409485 C-16.48272337 2.90654292 -18.86604809 2.7973252 -21.25 2.6875 C-22.86973635 2.62421893 -24.48952867 2.56235362 -26.109375 2.50195312 C-30.07375267 2.351037 -34.03687223 2.18068875 -38 2 C-38 1.67 -38 1.34 -38 1 C-33.39187551 0.85660392 -28.7837213 0.71421847 -24.17553711 0.57275391 C-22.60912236 0.52452665 -21.04271596 0.47602721 -19.47631836 0.42724609 C-17.21991096 0.35702446 -14.96347495 0.28779396 -12.70703125 0.21875 C-11.66298882 0.18593933 -11.66298882 0.18593933 -10.59785461 0.15246582 C-7.06378443 0.04531153 -3.53571155 -0.02395063 0 0 Z " fill="#22B4B7" transform="translate(693,782)"/>
<path d="M0 0 C6.6 0 13.2 0 20 0 C20 0.99 20 1.98 20 3 C22.31 3 24.62 3 27 3 C27 3.33 27 3.66 27 4 C20.82260045 4.17159443 15.08370312 3.53731344 9 2.5 C8.12988281 2.35691406 7.25976562 2.21382812 6.36328125 2.06640625 C4.24124305 1.71661973 2.12047972 1.3591135 0 1 C0 0.67 0 0.34 0 0 Z " fill="#3FC0BB" transform="translate(635,812)"/>
<path d="M0 0 C-2.22717968 2.22717968 -3.8920142 2.87909391 -6.8125 4 C-8.09060547 4.495 -8.09060547 4.495 -9.39453125 5 C-10.68423828 5.495 -10.68423828 5.495 -12 6 C-12.84949219 6.391875 -13.69898438 6.78375 -14.57421875 7.1875 C-17.23550318 8.07888029 -18.40922903 7.95954481 -21 7 C-18.63134147 5.81868429 -16.25643484 4.65504049 -13.875 3.5 C-13.20984375 3.16613281 -12.5446875 2.83226562 -11.859375 2.48828125 C-7.7278466 0.50352741 -4.68908674 -0.40901691 0 0 Z " fill="#16385E" transform="translate(435,801)"/>
<path d="M0 0 C0 0.66 0 1.32 0 2 C-2.76791945 2.86478781 -5.53865626 3.71711674 -8.3125 4.5625 C-9.09818359 4.80935547 -9.88386719 5.05621094 -10.69335938 5.31054688 C-11.45068359 5.53935547 -12.20800781 5.76816406 -12.98828125 6.00390625 C-13.68477783 6.21861572 -14.38127441 6.4333252 -15.09887695 6.65454102 C-17 7 -17 7 -20 6 C-5.78640777 0 -5.78640777 0 0 0 Z " fill="#173B5F" transform="translate(455,804)"/>
<path d="M0 0 C2.99381354 2.80466193 5.1993621 5.61184269 7.3125 9.125 C8.11107422 10.42824219 8.11107422 10.42824219 8.92578125 11.7578125 C9.28027344 12.49773438 9.63476562 13.23765625 10 14 C9.67 14.66 9.34 15.32 9 16 C8.34 14.68 7.68 13.36 7 12 C6.01 12.33 5.02 12.66 4 13 C3.566875 11.3603125 3.566875 11.3603125 3.125 9.6875 C2.18106796 5.95986155 2.18106796 5.95986155 0 3 C0 2.01 0 1.02 0 0 Z " fill="#17B6AF" transform="translate(1085,768)"/>
<path d="M0 0 C-3.31207682 4.10697526 -5.88475093 4.4209152 -11 5 C-11.33 5.66 -11.66 6.32 -12 7 C-12.66 6.67 -13.32 6.34 -14 6 C-13.67 5.01 -13.34 4.02 -13 3 C-10.56640625 1.796875 -10.56640625 1.796875 -7.5625 0.75 C-6.57378906 0.39421875 -5.58507812 0.0384375 -4.56640625 -0.328125 C-2 -1 -2 -1 0 0 Z " fill="#FD6F4F" transform="translate(398,723)"/>
<path d="M0 0 C0 0.66 0 1.32 0 2 C-6.08291273 4.1663492 -10.6447755 5.5197276 -17 4 C-14.19547298 2.48300584 -11.6142698 1.54691437 -8.5 0.875 C-7.7471875 0.70742188 -6.994375 0.53984375 -6.21875 0.3671875 C-4 0 -4 0 0 0 Z " fill="#FB5F4C" transform="translate(714,577)"/>
<path d="M0 0 C-2 2 -2 2 -4.625 2.125 C-5.40875 2.08375 -6.1925 2.0425 -7 2 C-7 2.33 -7 2.66 -7 3 C-11.49885947 3.86516528 -14.01647791 4.30903272 -18 2 C-15.75256955 1.46818825 -13.50192898 0.94992874 -11.25 0.4375 C-9.99703125 0.14746094 -8.7440625 -0.14257812 -7.453125 -0.44140625 C-4.40526252 -0.93444283 -2.82358172 -1.07666879 0 0 Z " fill="#FC805E" transform="translate(441,712)"/>
<path d="M0 0 C3.54243452 1.36591169 6.92627929 2.90931484 10.3125 4.625 C11.63701172 5.29402344 11.63701172 5.29402344 12.98828125 5.9765625 C13.65214844 6.31429687 14.31601562 6.65203125 15 7 C15 7.66 15 8.32 15 9 C11.04628701 8.43518386 8.28324906 7.28003407 5 5 C4.67 4.34 4.34 3.68 4 3 C3.01 3 2.02 3 1 3 C0.67 2.01 0.34 1.02 0 0 Z " fill="#FD783C" transform="translate(597,732)"/>
<path d="M0 0 C1.32 0.33 2.64 0.66 4 1 C-1.445 5.455 -1.445 5.455 -7 10 C-7.66 9.34 -8.32 8.68 -9 8 C-7.59785066 6.63080716 -6.17771527 5.28001291 -4.75 3.9375 C-3.56664062 2.80634766 -3.56664062 2.80634766 -2.359375 1.65234375 C-1.58078125 1.10707031 -0.8021875 0.56179688 0 0 Z " fill="#FD7242" transform="translate(551,686)"/>
<path d="M0 0 C5.1103144 1.1454153 9.37234081 2.45478745 14 5 C12.125 6.0625 12.125 6.0625 10 7 C9.34 6.67 8.68 6.34 8 6 C8 5.34 8 4.68 8 4 C7.236875 3.855625 6.47375 3.71125 5.6875 3.5625 C3 3 3 3 0 2 C0 1.34 0 0.68 0 0 Z " fill="#FD773F" transform="translate(581,726)"/>
<path d="M0 0 C0.33 0.66 0.66 1.32 1 2 C2.99319761 2.26140296 4.98774473 2.51730424 6.98828125 2.71484375 C9.29528168 3.04185546 11.02738757 3.76711723 13 5 C7.96488101 6.0070238 4.76052962 5.97387813 0 4 C0 2.68 0 1.36 0 0 Z " fill="#FC7745" transform="translate(528,709)"/>
<path d="M0 0 C2.31 0 4.62 0 7 0 C7.33 0.99 7.66 1.98 8 3 C9.98 3 11.96 3 14 3 C14 3.33 14 3.66 14 4 C8.84828377 4.09038099 4.08086796 3.84681133 -1 3 C-0.67 2.01 -0.34 1.02 0 0 Z " fill="#FD8959" transform="translate(535,735)"/>
<path d="M0 0 C1.9375 0.6875 1.9375 0.6875 2.9375 2.6875 C-2.6725 2.6875 -8.2825 2.6875 -14.0625 2.6875 C-14.0625 2.3575 -14.0625 2.0275 -14.0625 1.6875 C-13.01449219 1.59662109 -13.01449219 1.59662109 -11.9453125 1.50390625 C-11.03523437 1.42011719 -10.12515625 1.33632813 -9.1875 1.25 C-8.28257812 1.16878906 -7.37765625 1.08757813 -6.4453125 1.00390625 C-3.8987522 0.66575644 -2.5351887 -0.3841195 0 0 Z " fill="#077684" transform="translate(553.0625,794.3125)"/>
<path d="M0 0 C0 0.66 0 1.32 0 2 C-1.95689659 2.22142255 -3.91561952 2.4267568 -5.875 2.625 C-7.51082031 2.79902344 -7.51082031 2.79902344 -9.1796875 2.9765625 C-10.57574219 2.98816406 -10.57574219 2.98816406 -12 3 C-12.66 2.34 -13.32 1.68 -14 1 C-9.32798795 -0.20568053 -4.78503708 -0.09382426 0 0 Z " fill="#135877" transform="translate(506,781)"/>
<path d="M0 0 C1.04474487 0.08640747 1.04474487 0.08640747 2.1105957 0.17456055 C2.86791992 0.2293457 3.62524414 0.28413086 4.40551758 0.34057617 C5.19120117 0.4134082 5.97688477 0.48624023 6.78637695 0.5612793 C7.58366211 0.62250977 8.38094727 0.68374023 9.20239258 0.74682617 C11.16904648 0.89991899 13.13416685 1.07248639 15.09887695 1.2487793 C15.09887695 1.5787793 15.09887695 1.9087793 15.09887695 2.2487793 C8.49887695 2.5787793 1.89887695 2.9087793 -4.90112305 3.2487793 C-1.90112305 0.2487793 -1.90112305 0.2487793 0 0 Z " fill="#2DBBB6" transform="translate(953.901123046875,739.751220703125)"/>
<path d="M0 0 C3.80718548 0.72753266 7.55485569 1.61276572 11.3125 2.5625 C12.38113281 2.83191406 13.44976563 3.10132813 14.55078125 3.37890625 C15.76314453 3.68634766 15.76314453 3.68634766 17 4 C17 4.33 17 4.66 17 5 C12.71 4.67 8.42 4.34 4 4 C3.67 3.01 3.34 2.02 3 1 C2.01 0.67 1.02 0.34 0 0 Z " fill="#32BEBA" transform="translate(1013,723)"/>
<path d="M0 0 C3.63094642 2.64960955 5.89851796 5.01824456 8 9 C5 9 5 9 3.39453125 7.46875 C2.87246094 6.8190625 2.35039063 6.169375 1.8125 5.5 C1.28269531 4.8503125 0.75289062 4.200625 0.20703125 3.53125 C-0.19128906 3.0259375 -0.58960938 2.520625 -1 2 C-0.67 1.34 -0.34 0.68 0 0 Z " fill="#1DBEB6" transform="translate(1077,758)"/>
<path d="M0 0 C3.96 1.98 7.92 3.96 12 6 C11.34 6.66 10.68 7.32 10 8 C8.02 7.01 6.04 6.02 4 5 C4 4.34 4 3.68 4 3 C2.68 2.67 1.36 2.34 0 2 C0 1.34 0 0.68 0 0 Z " fill="#FD6F30" transform="translate(613,740)"/>
<path d="M0 0 C0.66 0.99 1.32 1.98 2 3 C0.02 4.98 -1.96 6.96 -4 9 C-4.99 8.67 -5.98 8.34 -7 8 C-4.69 5.36 -2.38 2.72 0 0 Z " fill="#FD7648" transform="translate(512,695)"/>
<path d="M0 0 C1.11375 0.598125 2.2275 1.19625 3.375 1.8125 C4.00148438 2.14894531 4.62796875 2.48539063 5.2734375 2.83203125 C7 4 7 4 9 7 C7.35 6.67 5.7 6.34 4 6 C4 5.34 4 4.68 4 4 C3.01 4 2.02 4 1 4 C1 3.34 1 2.68 1 2 C0.34 1.67 -0.32 1.34 -1 1 C-0.67 0.67 -0.34 0.34 0 0 Z " fill="#15BDB4" transform="translate(1057,741)"/>
<path d="M0 0 C0.33 0.99 0.66 1.98 1 3 C-0.98 3 -2.96 3 -5 3 C-5 3.66 -5 4.32 -5 5 C-5.66 5 -6.32 5 -7 5 C-7 3.68 -7 2.36 -7 1 C-4.53721199 -0.231394 -2.7204945 -0.07159196 0 0 Z " fill="#FC5D51" transform="translate(161,786)"/>
<path d="M0 0 C-0.33 1.32 -0.66 2.64 -1 4 C-4.3 3.67 -7.6 3.34 -11 3 C-6.93675441 0.9683772 -4.47525541 0 0 0 Z " fill="#269CB1" transform="translate(769,766)"/>
<path d="M0 0 C0 0.66 0 1.32 0 2 C-6.93 1.505 -6.93 1.505 -14 1 C-14 0.67 -14 0.34 -14 0 C-9.02936879 -0.91297308 -4.97063121 -0.91297308 0 0 Z " fill="#2AB6B0" transform="translate(1010,741)"/>
<path d="M0 0 C2.45898655 -0.08076963 4.91533742 -0.14037143 7.375 -0.1875 C8.07367188 -0.21263672 8.77234375 -0.23777344 9.4921875 -0.26367188 C11.5234375 -0.29296875 11.5234375 -0.29296875 15 0 C15.66 0.99 16.32 1.98 17 3 C11.39 2.34 5.78 1.68 0 1 C0 0.67 0 0.34 0 0 Z " fill="#FCE4B6" transform="translate(460,529)"/>
<path d="M0 0 C-0.33 0.99 -0.66 1.98 -1 3 C-2.77734375 3.80078125 -2.77734375 3.80078125 -4.9375 4.3125 C-5.64777344 4.49425781 -6.35804688 4.67601562 -7.08984375 4.86328125 C-8.03537109 4.93095703 -8.03537109 4.93095703 -9 5 C-9.66 4.34 -10.32 3.68 -11 3 C-9.54293274 2.49632243 -8.08429904 1.99717444 -6.625 1.5 C-5.81289063 1.2215625 -5.00078125 0.943125 -4.1640625 0.65625 C-2 0 -2 0 0 0 Z " fill="#1494AC" transform="translate(807,754)"/>
<path d="M0 0 C6.625 -0.125 6.625 -0.125 10 1 C10.33 1.99 10.66 2.98 11 4 C7.37 3.01 3.74 2.02 0 1 C0 0.67 0 0.34 0 0 Z " fill="#FD8C54" transform="translate(602,749)"/>
<path d="M0 0 C0.33 0.99 0.66 1.98 1 3 C0.02616054 4.68208635 -0.97695052 6.34738161 -2 8 C-2.70670728 10.69254991 -2.70670728 10.69254991 -3 13 C-3.33 13 -3.66 13 -4 13 C-3.40546697 3.40546697 -3.40546697 3.40546697 0 0 Z " fill="#FDC154" transform="translate(288,434)"/>
<path d="M0 0 C0.99 0 1.98 0 3 0 C2.67 1.65 2.34 3.3 2 5 C-0.31 4.67 -2.62 4.34 -5 4 C-5 3.67 -5 3.34 -5 3 C-3.35 3 -1.7 3 0 3 C0 2.01 0 1.02 0 0 Z " fill="#FC9460" transform="translate(638,756)"/>
<path d="M0 0 C6.625 -0.125 6.625 -0.125 10 1 C10.33 1.99 10.66 2.98 11 4 C7.37 3.01 3.74 2.02 0 1 C0 0.67 0 0.34 0 0 Z " fill="#FD925B" transform="translate(621,755)"/>
<path d="M0 0 C0 0.66 0 1.32 0 2 C0.99 2.33 1.98 2.66 3 3 C1.56163249 2.88541307 0.12429034 2.75790884 -1.3125 2.625 C-2.11300781 2.55539062 -2.91351562 2.48578125 -3.73828125 2.4140625 C-6 2 -6 2 -9 0 C-3.375 -1.125 -3.375 -1.125 0 0 Z " fill="#FD8553" transform="translate(582,742)"/>
<path d="M0 0 C-4.75 2.875 -4.75 2.875 -7 4 C-7 3.34 -7 2.68 -7 2 C-8.32 1.67 -9.64 1.34 -11 1 C-3.57142857 -1.42857143 -3.57142857 -1.42857143 0 0 Z " fill="#31B0B6" transform="translate(876,734)"/>
<path d="M0 0 C-0.33 0.99 -0.66 1.98 -1 3 C-4.63 3 -8.26 3 -12 3 C-8.6463584 -0.3536416 -4.57608788 0 0 0 Z " fill="#38B8BF" transform="translate(888,730)"/>
<path d="M0 0 C0.33 0 0.66 0 1 0 C1 1.65 1 3.3 1 5 C-0.65 5.33 -2.3 5.66 -4 6 C-4.33 4.35 -4.66 2.7 -5 1 C-3.35 1.99 -1.7 2.98 0 4 C0 2.68 0 1.36 0 0 Z " fill="#20BCB2" transform="translate(1100,798)"/>
<path d="M0 0 C-1.6875 1.5625 -1.6875 1.5625 -4 3 C-6.75 2.6875 -6.75 2.6875 -9 2 C-4 -1.33333333 -4 -1.33333333 0 0 Z " fill="#E5F7F8" transform="translate(895,757)"/>
<path d="M0 0 C-0.33 0.99 -0.66 1.98 -1 3 C-3.97 2.67 -6.94 2.34 -10 2 C-10 1.67 -10 1.34 -10 1 C-6.56484998 0.37542727 -3.50935186 0 0 0 Z " fill="#FB5747" transform="translate(235,787)"/>
<path d="M0 0 C4.455 0.99 4.455 0.99 9 2 C5 4 5 4 2.25 3.125 C1.5075 2.75375 0.765 2.3825 0 2 C0 1.34 0 0.68 0 0 Z " fill="#FC8351" transform="translate(570,722)"/>
<path d="M0 0 C0 0.33 0 0.66 0 1 C-4.79137588 2.6290678 -8.05632546 3.20577428 -13 2 C-13 1.67 -13 1.34 -13 1 C-8.59085217 -0.10228696 -4.51617599 -0.07654536 0 0 Z " fill="#FD916C" transform="translate(463,708)"/>
<path d="M0 0 C0.66 0.66 1.32 1.32 2 2 C-0.97 4.475 -0.97 4.475 -4 7 C-4 4 -4 4 -2 1.8125 C-1.34 1.214375 -0.68 0.61625 0 0 Z " fill="#FD733C" transform="translate(533,702)"/>
<path d="M0 0 C0.66 1.32 1.32 2.64 2 4 C0.625 6 0.625 6 -1 8 C-1.66 8 -2.32 8 -3 8 C-1.125 2.25 -1.125 2.25 0 0 Z " fill="#FCAC2D" transform="translate(321,608)"/>
</svg>
